<svg xmlns="http://www.w3.org/2000/svg" viewBox="0 0 183.91 233.85"><defs><style>.cls-1{fill:#4b4a4b;}.cls-2{fill:#21439b;}</style></defs><title>lr-logo</title><g id="Layer_2" data-name="Layer 2"><g id="Layer_1-2" data-name="Layer 1"><path class="cls-1" d="M0,198.28H6.64v1.11H1.26v4.72H5.87v1.11H1.26v5.63H0Z"/><path class="cls-1" d="M10.11,198.28h3.72a5.59,5.59,0,0,1,2.36.34,3.66,3.66,0,0,1-.48,6.63v0a4.89,4.89,0,0,1,.32.5l2.74,5.06H17.35l-2.84-5.29H11.34v5.29H10.11Zm4.22,6.17a2.6,2.6,0,0,0,1.34-4.76,3.61,3.61,0,0,0-1.79-.3H11.34v5.06Z"/><path class="cls-1" d="M27.78,198.07a6.35,6.35,0,0,1,6.4,6.42,6.4,6.4,0,1,1-12.8,0A6.35,6.35,0,0,1,27.78,198.07Zm0,11.86a5.24,5.24,0,0,0,5.11-5.44,5.12,5.12,0,1,0-10.23,0A5.22,5.22,0,0,0,27.78,209.92Z"/><path class="cls-1" d="M38.47,198.28h1.29L43,205.67c.29.64.61,1.54.61,1.54h0s.34-.89.63-1.54l3.29-7.39h1.27l1,12.57H48.64l-.7-8.8c-.05-.68,0-1.75,0-1.75h0s-.38,1.11-.66,1.75l-3,6.46H43.1l-3-6.46c-.29-.63-.68-1.79-.68-1.79h0s0,1.11,0,1.79l-.7,8.8H37.47Z"/><path class="cls-1" d="M62.55,199.39H58v-1.11H68.29v1.11H63.79v11.46H62.55Z"/><path class="cls-1" d="M71.14,198.28h1.23V204h7.3v-5.72H80.9v12.57H79.67v-5.74h-7.3v5.74H71.14Z"/><path class="cls-1" d="M85.44,198.28h7.08v1.11H86.67V204h4.77v1.11H86.67v4.67h6.17v1.11h-7.4Z"/><path class="cls-1" d="M102.85,198.28h1.29l3.29,7.39c.29.64.61,1.54.61,1.54h0s.34-.89.63-1.54l3.29-7.39h1.27l1,12.57H113l-.7-8.8c-.05-.68,0-1.75,0-1.75h0s-.38,1.11-.66,1.75l-3,6.46h-1.16l-3-6.46c-.29-.63-.68-1.79-.68-1.79h0s0,1.11,0,1.79l-.7,8.8h-1.23Z"/><path class="cls-1" d="M124.62,206.85h-5.06l-1.43,4h-1.31l4.61-12.57h1.32l4.61,12.57h-1.31Zm-2.54-7.26s-.27,1-.48,1.63l-1.68,4.56h4.33l-1.64-4.56c-.21-.59-.48-1.63-.48-1.63Z"/><path class="cls-1" d="M130.32,198.28H134a5.59,5.59,0,0,1,2.36.34,3.66,3.66,0,0,1-.48,6.63v0a4.89,4.89,0,0,1,.32.5l2.74,5.06h-1.41l-2.84-5.29h-3.16v5.29h-1.23Zm4.22,6.17a2.6,2.6,0,0,0,1.34-4.76,3.61,3.61,0,0,0-1.79-.3h-2.54v5.06Z"/><path class="cls-1" d="M147.93,198.07a6.79,6.79,0,0,1,4.47,1.47l-.66.93a6.18,6.18,0,0,0-3.76-1.25,5.37,5.37,0,0,0-.11,10.71,5.49,5.49,0,0,0,4-1.84V206h-2.15v-1.11H153v6h-1.14v-.95c0-.27,0-.54,0-.54h0a5.62,5.62,0,0,1-4.09,1.7,6.23,6.23,0,0,1-6.15-6.51A6.31,6.31,0,0,1,147.93,198.07Z"/><path class="cls-1" d="M156.89,198.28h1.23v12.57h-1.23Z"/><path class="cls-1" d="M162.66,198.28h1.2l6.42,9c.43.63,1,1.7,1,1.7h0s-.11-1-.11-1.7v-9h1.23v12.57h-1.2l-6.42-9c-.43-.63-1-1.7-1-1.7h0s.11,1,.11,1.7v9h-1.23Z"/><path class="cls-1" d="M176.82,208.51a4.91,4.91,0,0,0,3.29,1.38,2.27,2.27,0,0,0,2.5-2.18c0-3.17-6.28-2.36-6.28-6.26,0-1.81,1.59-3.38,3.92-3.38a4.88,4.88,0,0,1,3.36,1.22l-.61,1a4.29,4.29,0,0,0-2.75-1.07,2.41,2.41,0,0,0-2.65,2.16c0,3,6.28,2.13,6.28,6.26,0,1.88-1.45,3.4-3.81,3.4a5.54,5.54,0,0,1-4-1.61Z"/><path class="cls-1" d="M5.65,219.26H0v-1.38H12.82v1.38H7.19v14.31H5.65Z"/><path class="cls-1" d="M23,217.61a7.94,7.94,0,0,1,8,8,8,8,0,1,1-16,0A7.94,7.94,0,0,1,23,217.61Zm0,14.81a6.54,6.54,0,0,0,6.39-6.79,6.39,6.39,0,1,0-12.77,0A6.53,6.53,0,0,0,23,232.42Z"/><path class="cls-1" d="M46.23,219.26H40.58v-1.38H53.4v1.38H47.77v14.31H46.23Z"/><path class="cls-1" d="M56.95,217.88h1.54V225H67.6v-7.15h1.54v15.7H67.6v-7.17H58.49v7.17H56.95Z"/><path class="cls-1" d="M74.82,217.88h8.84v1.38h-7.3V225h6v1.38h-6v5.83h7.7v1.38H74.82Z"/><path class="cls-1" d="M102.62,217.61a8,8,0,0,1,5.65,2l-.83,1.14a7.38,7.38,0,0,0-4.78-1.74,6.28,6.28,0,0,0-6.32,6.57c0,3.75,2.63,6.81,6.36,6.81a7.34,7.34,0,0,0,5.09-2.1l.89,1.09a8.37,8.37,0,0,1-6,2.43,7.91,7.91,0,0,1-8-8.22A7.79,7.79,0,0,1,102.62,217.61Z"/><path class="cls-1" d="M113.16,217.88H122v1.38h-7.3V225h6v1.38h-6v5.83h7.7v1.38h-9.24Z"/><path class="cls-1" d="M127,217.88h1.5l8,11.3c.54.78,1.3,2.12,1.3,2.12h0s-.13-1.3-.13-2.12v-11.3h1.54v15.7h-1.5l-8-11.3c-.54-.78-1.3-2.12-1.3-2.12h0s.13,1.3.13,2.12v11.3H127Z"/><path class="cls-1" d="M148.49,219.26h-5.65v-1.38h12.82v1.38H150v14.31h-1.54Z"/><path class="cls-1" d="M159.24,217.88h8.84v1.38h-7.3V225h6v1.38h-6v5.83h7.7v1.38h-9.24Z"/><path class="cls-1" d="M173.11,217.88h4.64a7,7,0,0,1,2.95.42,4.57,4.57,0,0,1-.6,8.29v0a6.08,6.08,0,0,1,.4.63l3.42,6.32h-1.76L178.6,227h-4v6.61h-1.54Zm5.27,7.7a3.25,3.25,0,0,0,1.67-5.94,4.51,4.51,0,0,0-2.23-.38h-3.17v6.32Z"/><polygon class="cls-2" points="62.19 125.94 52.44 125.94 52.44 106.77 50.38 106.77 50.38 127.79 62.19 127.79 62.19 125.94"/><path class="cls-2" d="M76.19,128.15c4.75,0,8-3,8-7.68V106.77H82.14v13.6c0,3.68-2.36,5.86-6,5.86s-5.95-2.18-5.95-5.8V106.77H68.12v13.69C68.12,125.13,71.41,128.15,76.19,128.15Z"/><path class="cls-2" d="M107.39,121.9c0,1.11.18,2.84.18,2.84h-.06s-1-1.79-1.73-2.84L95,106.77H93v21H95.1V112.66c0-1.11-.18-2.84-.18-2.84H95s1,1.79,1.74,2.84l10.73,15.13h2v-21h-2.06Z"/><path class="cls-2" d="M120.47,121.09h8.46l2.42,6.7h2.18l-7.71-21h-2.21l-7.71,21h2.18Zm3.41-9.42c.36-1,.81-2.72.81-2.72h.06s.45,1.73.81,2.72l2.75,7.62h-7.24Z"/><path class="cls-2" d="M51.39,144.53h3.95l3.55,6.6h1.76l-3.41-6.31a6.22,6.22,0,0,0-.4-.62v0a4.57,4.57,0,0,0,.6-8.28,7,7,0,0,0-2.95-.42H49.85v15.69h1.54Zm0-7.7h3.17a4.5,4.5,0,0,1,2.23.38,3.25,3.25,0,0,1-1.67,5.94H51.39Z"/><path class="cls-2" d="M67.53,146.13h6.31l1.81,5h1.63l-5.76-15.69H69.87l-5.76,15.69h1.63Zm2.54-7c.27-.74.6-2,.6-2h0s.33,1.29.6,2l2.05,5.69H68Z"/><path class="cls-2" d="M92.79,146.73c0,.83.13,2.12.13,2.12h0s-.76-1.34-1.3-2.12l-8-11.29h-1.5v15.69h1.54V139.84c0-.83-.13-2.12-.13-2.12h0s.76,1.34,1.29,2.12l8,11.29h1.49V135.44H92.79Z"/><path class="cls-2" d="M106.9,146.73c0,2.43-1.47,3.24-2.86,3.24s-2.88-.87-2.88-3.28v-.58H99.63v.62c0,3.37,2.25,4.66,4.4,4.66s4.42-1.27,4.42-4.66V135.44H106.9Z"/><rect class="cls-2" x="115.05" y="135.44" width="1.54" height="15.69"/><polygon class="cls-2" points="121.26 136.83 126.91 136.83 126.91 151.13 128.44 151.13 128.44 136.83 134.07 136.83 134.07 135.44 121.26 135.44 121.26 136.83"/><polygon class="cls-2" points="72.43 82.12 72.43 38.6 65.25 31.62 65.25 89.07 100.28 89.07 96.29 82.12 72.43 82.12"/><path class="cls-2" d="M105.12,64v0c5.91-2.44,9.73-8.51,9.73-15.87,0-6.58-3.1-11.89-8.49-14.59-2.61-1.3-5.55-1.81-10.51-1.81H77.42l4,7H95.68c4.34,0,5.64.43,6.69.9,3.26,1.47,5.12,4.58,5.12,8.55,0,6.29-3.73,10.35-9.51,10.36l-5.19,0,17.55,30.62h8.33Z"/><path class="cls-2" d="M183.47,183H.45V0h183ZM5.29,178.18H178.62V4.85H5.29Z"/></g></g></svg>